<svg xmlns="http://www.w3.org/2000/svg" width="439" height="179" fill="none" viewBox="0 0 439 179">
    <rect width="437" height="177" x="1" y="1" fill="#fff" stroke="#C4C4C4" stroke-width="2" rx="5"/>
    <rect width="423" height="58" x="8" y="108" fill="#E9E9E9" rx="6"/>
    <path fill="#34394F" d="M26.67 129.364h-1.738v8.545h-.108l-5.92-8.545h-1.626V141h1.756v-8.534h.108L25.057 141h1.614v-11.636zm5.663 11.812c1.904 0 3.25-.937 3.637-2.358l-1.608-.29c-.307.824-1.046 1.245-2.012 1.245-1.454 0-2.431-.943-2.477-2.625h6.205v-.603c0-3.153-1.887-4.386-3.864-4.386-2.432 0-4.034 1.852-4.034 4.534 0 2.71 1.58 4.483 4.154 4.483zm-2.454-5.301c.068-1.239.966-2.313 2.346-2.313 1.319 0 2.182.978 2.188 2.313h-4.534zm7.56 5.125h1.7v-5.33c0-1.142.88-1.965 2.085-1.965.352 0 .75.062.886.102v-1.625c-.17-.023-.506-.04-.721-.04-1.023 0-1.898.58-2.216 1.517h-.091v-1.386H37.44V141zm8.573.17c1.59 0 2.216-.971 2.523-1.528h.142V141h1.659v-11.636h-1.7v4.324h-.102c-.306-.54-.886-1.529-2.51-1.529-2.109 0-3.66 1.665-3.66 4.494 0 2.824 1.528 4.517 3.648 4.517zm.375-1.448c-1.517 0-2.307-1.336-2.307-3.086 0-1.733.773-3.034 2.307-3.034 1.483 0 2.278 1.21 2.278 3.034 0 1.836-.812 3.086-2.278 3.086zm6.924 4.551c1.404 0 2.29-.733 2.796-2.108l3.608-9.875-1.836-.017-2.21 6.772h-.09l-2.211-6.772H51.55l3.193 8.841-.21.579c-.432 1.159-1.04 1.256-1.972 1l-.409 1.392c.205.091.648.188 1.16.188z"/>
    <path fill="#C4C4C4" d="M23.773 26.273h1.363c-.062-1.756-1.681-3.069-3.931-3.069-2.228 0-3.978 1.296-3.978 3.25 0 1.569 1.137 2.5 2.955 3.023l1.432.41c1.227.34 2.318.772 2.318 1.931 0 1.273-1.227 2.114-2.841 2.114-1.387 0-2.614-.614-2.727-1.932h-1.455c.137 1.91 1.682 3.205 4.182 3.205 2.682 0 4.204-1.478 4.204-3.364 0-2.182-2.068-2.887-3.272-3.205l-1.182-.318c-.864-.227-2.25-.682-2.25-1.932 0-1.113 1.023-1.931 2.568-1.931 1.41 0 2.477.67 2.614 1.818zm6.793 8.909c1.773 0 3.069-.887 3.478-2.205l-1.296-.363c-.34.909-1.13 1.363-2.182 1.363-1.573 0-2.659-1.017-2.721-2.886h6.335v-.568c0-3.25-1.932-4.364-3.75-4.364-2.364 0-3.932 1.864-3.932 4.546 0 2.681 1.546 4.477 4.068 4.477zm-2.721-5.25c.09-1.358 1.051-2.568 2.585-2.568 1.455 0 2.386 1.09 2.386 2.568h-4.971zm9.193-6.568h-1.341V35h1.34V23.364zm5.592 11.818c1.772 0 3.068-.887 3.477-2.205l-1.295-.363c-.341.909-1.131 1.363-2.182 1.363-1.574 0-2.66-1.017-2.722-2.886h6.335v-.568c0-3.25-1.931-4.364-3.75-4.364-2.363 0-3.931 1.864-3.931 4.546 0 2.681 1.545 4.477 4.068 4.477zm-2.722-5.25c.091-1.358 1.051-2.568 2.585-2.568 1.455 0 2.387 1.09 2.387 2.568h-4.972zm11.397 5.25c1.932 0 3.205-1.182 3.432-2.727h-1.34c-.25.954-1.046 1.522-2.092 1.522-1.59 0-2.613-1.318-2.613-3.34 0-1.978 1.045-3.273 2.613-3.273 1.182 0 1.887.727 2.091 1.522h1.341c-.227-1.636-1.613-2.727-3.454-2.727-2.364 0-3.932 1.864-3.932 4.523 0 2.613 1.5 4.5 3.954 4.5zm8.665-8.91h-1.864v-2.09h-1.34v2.09h-1.319v1.137h1.318v5.455c0 1.522 1.228 2.25 2.364 2.25.5 0 .818-.091 1-.16l-.273-1.204c-.113.023-.295.068-.59.068-.592 0-1.16-.182-1.16-1.318v-5.09h1.864v-1.137zm9.016 8.91c1.932 0 3.205-1.182 3.432-2.727h-1.34c-.25.954-1.046 1.522-2.092 1.522-1.59 0-2.613-1.318-2.613-3.34 0-1.978 1.045-3.273 2.613-3.273 1.182 0 1.887.727 2.091 1.522h1.341c-.227-1.636-1.614-2.727-3.455-2.727-2.363 0-3.931 1.864-3.931 4.523 0 2.613 1.5 4.5 3.954 4.5zm7.437.023c1.523 0 2.319-.819 2.591-1.387h.068V35h1.341v-5.75c0-2.773-2.113-3.09-3.227-3.09-1.318 0-2.818.454-3.5 2.044l1.273.455c.295-.636.994-1.318 2.273-1.318 1.233 0 1.84.653 1.84 1.773v.045c0 .648-.659.591-2.25.796-1.619.21-3.386.568-3.386 2.568 0 1.704 1.318 2.681 2.977 2.681zM76.628 34c-1.068 0-1.841-.477-1.841-1.41 0-1.022.932-1.34 1.977-1.476.568-.069 2.091-.228 2.318-.5v1.227c0 1.09-.863 2.159-2.454 2.159zm9.515-7.727H84.28v-2.091h-1.34v2.09H81.62v1.137h1.319v5.455c0 1.522 1.227 2.25 2.363 2.25.5 0 .818-.091 1-.16l-.273-1.204c-.113.023-.295.068-.59.068-.591 0-1.16-.182-1.16-1.318v-5.09h1.864v-1.137zm5.06 8.909c1.772 0 3.068-.887 3.477-2.205l-1.296-.363c-.34.909-1.13 1.363-2.181 1.363-1.574 0-2.66-1.017-2.722-2.886h6.335v-.568c0-3.25-1.932-4.364-3.75-4.364-2.364 0-3.932 1.864-3.932 4.546 0 2.681 1.546 4.477 4.069 4.477zm-2.722-5.25c.09-1.358 1.051-2.568 2.585-2.568 1.455 0 2.386 1.09 2.386 2.568h-4.971zm11.375 8.523c2.09 0 3.772-.955 3.772-3.205v-8.977h-1.295v1.386h-.137c-.295-.454-.84-1.5-2.545-1.5-2.205 0-3.727 1.75-3.727 4.432 0 2.727 1.59 4.273 3.704 4.273 1.705 0 2.25-1 2.546-1.478h.113v1.773c0 1.455-1.022 2.114-2.431 2.114-1.586 0-2.142-.836-2.5-1.319l-1.069.75c.546.915 1.62 1.75 3.569 1.75zm-.046-4.796c-1.682 0-2.545-1.273-2.545-3.09 0-1.773.84-3.205 2.545-3.205 1.636 0 2.5 1.318 2.5 3.204 0 1.932-.886 3.091-2.5 3.091zm9.295 1.523c2.364 0 3.955-1.796 3.955-4.5 0-2.727-1.591-4.523-3.955-4.523-2.363 0-3.954 1.796-3.954 4.523 0 2.704 1.591 4.5 3.954 4.5zm0-1.205c-1.795 0-2.613-1.545-2.613-3.295s.818-3.318 2.613-3.318c1.796 0 2.614 1.568 2.614 3.318s-.818 3.295-2.614 3.295zM114.584 35h1.34v-5.523c0-1.181.932-2.045 2.205-2.045.358 0 .727.068.818.09V26.16c-.153-.011-.506-.023-.704-.023-1.046 0-1.955.591-2.273 1.455h-.091v-1.318h-1.295V35zm6.559 3.273c1.21 0 2.062-.642 2.568-2l3.716-9.978-1.466-.022-2.409 6.954h-.091l-2.409-6.954h-1.455l3.228 8.772-.25.682c-.489 1.33-1.091 1.455-2.069 1.205l-.34 1.182c.136.068.522.159.977.159z"/>
    <path fill="#34394F" d="M17.41 81h7.113v-1.25h-5.705v-3.954h5.25v-1.25h-5.25v-3.932h5.614v-1.25h-7.023V81zm9.857-8.727H25.72l2.773 4.363L25.721 81h1.546l2.09-3.386L31.449 81h1.546l-2.818-4.364 2.818-4.363h-1.546l-2.09 3.568-2.091-3.568zm7.117 12h1.341v-4.614h.114c.295.477.863 1.523 2.545 1.523 2.182 0 3.705-1.75 3.705-4.523 0-2.75-1.523-4.5-3.727-4.5-1.705 0-2.228 1.045-2.523 1.5h-.16v-1.386h-1.295v12zm1.318-7.637c0-1.954.864-3.272 2.5-3.272 1.705 0 2.546 1.431 2.546 3.272 0 1.864-.864 3.341-2.546 3.341-1.613 0-2.5-1.363-2.5-3.34zm9.25-7.272h-1.34V81h1.34V69.364zM46.885 81h1.34v-8.727h-1.34V81zm.682-10.182c.523 0 .954-.409.954-.909S48.09 69 47.567 69c-.523 0-.955.41-.955.91s.432.908.955.908zm6.137 10.364c1.932 0 3.205-1.182 3.432-2.728h-1.34c-.25.955-1.046 1.523-2.092 1.523-1.59 0-2.613-1.318-2.613-3.34 0-1.978 1.045-3.273 2.613-3.273 1.182 0 1.887.727 2.091 1.522h1.341c-.227-1.636-1.614-2.727-3.455-2.727-2.363 0-3.931 1.864-3.931 4.523 0 2.614 1.5 4.5 3.954 4.5zm4.87-.182h1.34v-8.727h-1.34V81zm.681-10.182c.523 0 .954-.409.954-.909S59.779 69 59.255 69c-.523 0-.955.41-.955.91s.432.908.955.908zm6.387 1.455H63.78v-2.091h-1.341v2.09H61.12v1.137h1.318v5.455c0 1.522 1.227 2.25 2.364 2.25.5 0 .818-.091 1-.16l-.273-1.204c-.114.023-.296.068-.591.068-.591 0-1.16-.182-1.16-1.318v-5.09h1.864v-1.137z" opacity=".8"/>
    <path fill="#34394F" fill-rule="evenodd" d="M408.53 32.03c.293-.293.293-.767 0-1.06l-4-4c-.293-.293-.767-.293-1.06 0l-4 4c-.293.293-.293.767 0 1.06.293.293.767.293 1.06 0l3.47-3.47 3.47 3.47c.293.293.767.293 1.06 0z" clip-rule="evenodd"/>
</svg>
